PathFileType	4	(X/Y/Z)	C:/Users/opensim2020/Desktop/walking_exp_matlab/subject02_walking07_straight_01.trc																																																																																																																																																				
DataRate	CameraRate	NumFrames	NumMarkers	Units	OrigDataRate	OrigDataStartFrame	OrigNumFrames																																																																																																																																																
100	100	4	50	mm	100	736	176																																																																																																																																																
Frame#	Time	LFHD			RFHD			LBHD			RBHD			C7			T10			CLAV			STRN			RBAK			LSHO			LUPA			LELB			LFRM			LWRA			LWRB			LFIN			RSHO			RUPA			RELB			RFRM			RWRA			RWRB			RFIN			LASI			RASI			LPSI			RPSI			LTHI			LKNE			LTIB			LANK			LHEE			LTOE			RTHI			RKNE			RTIB			RANK			RHEE			RTOE			*39			*40			*41			*42			*43			*44			*45			*46			*47			*48			*49		
		X1	Y1	Z1	X2	Y2	Z2	X3	Y3	Z3	X4	Y4	Z4	X5	Y5	Z5	X6	Y6	Z6	X7	Y7	Z7	X8	Y8	Z8	X9	Y9	Z9	X10	Y10	Z10	X11	Y11	Z11	X12	Y12	Z12	X13	Y13	Z13	X14	Y14	Z14	X15	Y15	Z15	X16	Y16	Z16	X17	Y17	Z17	X18	Y18	Z18	X19	Y19	Z19	X20	Y20	Z20	X21	Y21	Z21	X22	Y22	Z22	X23	Y23	Z23	X24	Y24	Z24	X25	Y25	Z25	X26	Y26	Z26	X27	Y27	Z27	X28	Y28	Z28	X29	Y29	Z29	X30	Y30	Z30	X31	Y31	Z31	X32	Y32	Z32	X33	Y33	Z33	X34	Y34	Z34	X35	Y35	Z35	X36	Y36	Z36	X37	Y37	Z37	X38	Y38	Z38	X39	Y39	Z39	X40	Y40	Z40	X41	Y41	Z41	X42	Y42	Z42	X43	Y43	Z43	X44	Y44	Z44	X45	Y45	Z45	X46	Y46	Z46	X47	Y47	Z47	X48	Y48	Z48	X49	Y49	Z49	X50	Y50	Z50
																																																																																																																																																							
89	0.88	-171.65129	1748.19397	1338.21997	-171.45544	1734.68616	1482.14209	-289.46588	1653.74658	1330.48755	-301.03391	1637.04651	1472.99292	-329.96231	1521.95105	1409.73987	-385.7941	1249.10608	1417.79211	-191.08386	1456.06592	1396.23328	-138.97029	1283.34851	1412.13416	-385.45602	1353.36951	1483.48425	-262.89853	1489.16479	1227.37854	-269.10104	1284.3772	1148.81592	-265.27905	1143.84839	1140.94885	-249.87476	1013.52472	1128.33777	-189.79469	890.80109	1161.87024	-233.81718	892.38403	1126.44214	-212.33868	829.69177	1121.20313	-240.98212	1498.323	1593.59558	-251.4558	1308.95239	1685.13086	-221.60699	1164.08191	1702.53857	-174.50023	1051.25354	1716.20349	-114.1636	931.96552	1685.36511	-152.5498	923.13239	1727.20813	-108.41313	864.96216	1720.08508	-142.35497	989.84271	1292.92175	-166.63649	969.73218	1547.04089	-358.9744	1032.27783	1352.95886	-374.09854	1027.0769	1467.30408	-167.2793	680.06134	1243.3291	-175.81728	477.30957	1281.84644	-217.74258	285.97278	1286.8158	-203.01141	66.56265	1334.31665	-241.26849	39.55273	1383.39111	-45.9131	33.05792	1333.89575	-241.86789	667.81097	1629.0686	-236.47861	468.18427	1626.68347	-383.57004	359.11523	1613.20251	-520.1604	228.91695	1564.74597	-566.55243	204.59068	1497.29883	-464.42404	85.09632	1609.47485	-283.77539	1800.0531	1424.53979	2845.17407	1033.88599	-3360.38965	NaN	NaN	NaN	NaN	NaN	NaN	NaN	NaN	NaN	NaN	NaN	NaN	NaN	NaN	NaN	NaN	NaN	NaN	NaN	NaN	NaN	NaN	NaN	NaN	NaN	NaN	NaN
90	0.89	-163.00061	1749.4646	1336.47473	-162.91661	1736.14514	1480.40002	-280.44028	1654.54285	1328.7019	-291.93967	1638.08643	1471.56714	-320.74786	1523.22839	1407.32568	-377.01001	1250.44409	1414.92859	-181.94791	1457.17859	1394.78223	-130.28017	1284.2406	1410.79395	-377.146	1354.40173	1480.38855	-252.46272	1490.78137	1225.62891	-255.85933	1286.54626	1146.52942	-249.2019	1145.70923	1137.82312	-229.36995	1015.64246	1126.29321	-166.74026	895.0354	1161.76294	-209.50171	894.88348	1125.23181	-185.62917	833.4873	1120.85107	-232.6973	1499.56519	1591.7229	-244.30389	1310.18396	1683.15405	-215.07727	1165.23059	1700.1488	-170.00243	1051.63843	1714.34216	-112.53204	930.79785	1684.18237	-150.96898	923.02045	1726.09583	-108.21319	863.71295	1719.21777	-133.79189	990.55328	1291.66333	-158.76537	971.84814	1546.09778	-350.46115	1033.33447	1350.78174	-365.83209	1028.16724	1464.93103	-162.72066	679.86975	1242.25769	-174.40157	477.31207	1280.84509	-217.6946	286.18073	1286.65686	-203.07457	66.62779	1334.35583	-240.94139	39.61583	1383.85779	-45.87465	33.01944	1333.87805	-227.99637	670.01355	1628.49194	-219.12668	470.59247	1625.72559	-364.36578	359.3443	1611.50244	-497.88815	226.48674	1562.68762	-543.51465	199.3266	1494.97864	-438.78329	86.21684	1611.29968	-275.38519	1800.78809	1422.61951	2845.97974	1034.0802	-3357.396	NaN	NaN	NaN	NaN	NaN	NaN	NaN	NaN	NaN	NaN	NaN	NaN	NaN	NaN	NaN	NaN	NaN	NaN	NaN	NaN	NaN	NaN	NaN	NaN	NaN	NaN	NaN
91	0.9	-154.35817	1750.63367	1334.79602	-154.43575	1737.57727	1478.75574	-271.4682	1655.25378	1327.01941	-283.08072	1638.92896	1469.86511	-311.63779	1524.44006	1405.01367	-368.32294	1251.75037	1412.09814	-172.87689	1458.1709	1393.42627	-121.62418	1285.03845	1409.47815	-368.9707	1355.88086	1477.58716	-242.00949	1492.30225	1224.00708	-242.63681	1288.69128	1144.28918	-233.33089	1147.84497	1134.66028	-209.58488	1018.56055	1124.21387	-143.68044	899.89453	1161.84644	-185.24924	898.01898	1124.29639	-159.22559	837.7218	1120.57532	-224.9059	1500.58972	1589.81763	-237.30431	1311.29077	1681.28052	-208.68448	1166.2146	1697.85413	-165.5807	1052.01697	1712.51538	-110.33585	930.18231	1683.49365	-149.31154	923.03357	1725.03735	-107.59936	862.90912	1718.64111	-125.55507	991.33356	1290.28503	-150.7197	973.95258	1544.89502	-342.16147	1034.39233	1348.86694	-357.66837	1029.16028	1462.82776	-158.41507	679.71649	1241.41077	-173.05779	477.25909	1279.85022	-217.6601	286.41074	1286.52673	-203.11563	66.63766	1334.4187	-241.04585	39.65698	1383.86584	-45.84095	32.96359	1333.88782	-214.27824	672.3418	1627.78149	-202.09334	473.17819	1624.91516	-345.09998	359.01721	1609.79993	-475.3089	222.64749	1560.526	-519.59564	193.0887	1492.86743	-412.41687	86.20581	1613.08972	-267.31329	1801.56799	1420.55652	2845.78198	1034.20483	-3357.56396	NaN	NaN	NaN	NaN	NaN	NaN	NaN	NaN	NaN	NaN	NaN	NaN	NaN	NaN	NaN	NaN	NaN	NaN	NaN	NaN	NaN	NaN	NaN	NaN	NaN	NaN	NaN
92	0.91	-145.62605	1752.04395	1333.40845	-146.03838	1738.86292	1477.17749	-262.44186	1655.90613	1325.32617	-274.25287	1639.6626	1468.15759	-302.56296	1525.52405	1402.71643	-359.6076	1252.98474	1409.28162	-163.80653	1459.10767	1392.09863	-112.90691	1285.75146	1408.24744	-360.26932	1356.7395	1474.59741	-231.71574	1493.86084	1222.45947	-229.70567	1290.89636	1142.05811	-217.62018	1150.11157	1131.57227	-189.55573	1021.0777	1122.29053	-120.70409	905.19659	1161.85815	-161.48271	901.64362	1123.2677	-132.95566	842.23187	1120.72546	-216.76529	1501.6051	1588.04688	-230.01431	1312.2793	1679.28162	-202.76004	1166.94836	1695.34717	-161.07904	1052.4585	1710.9574	-108.48907	929.29449	1682.40833	-147.40154	923.06897	1724.12036	-107.02444	862.07434	1717.86206	-117.56653	992.1933	1288.71265	-142.47133	975.97681	1543.37805	-333.80579	1035.02783	1347.15112	-349.48523	1030.0105	1461.06653	-154.33893	679.6109	1240.7074	-171.6976	477.24048	1278.98364	-217.45078	286.65433	1286.25989	-203.13168	66.63438	1334.40637	-241.04829	39.75986	1383.92224	-45.78164	32.8903	1333.9082	-201.45605	674.66168	1627.45264	-185.51678	475.70367	1623.71155	-325.79306	358.29431	1608.0614	-451.73065	217.97144	1558.91284	-494.71219	185.72752	1490.99915	-385.22269	85.26015	1614.87524	-259.11142	1802.28296	1418.68152	NaN	NaN	NaN	NaN	NaN	NaN	NaN	NaN	NaN	NaN	NaN	NaN	NaN	NaN	NaN	NaN	NaN	NaN	NaN	NaN	NaN	NaN	NaN	NaN	NaN	NaN	NaN	NaN	NaN	NaN
